<?xml version="1.0" encoding="utf-8"?>
<!-- Generator: Adobe Illustrator 25.0.0, SVG Export Plug-In . SVG Version: 6.00 Build 0)  -->
<svg version="1.1" id="Capa_1" xmlns="http://www.w3.org/2000/svg" xmlns:xlink="http://www.w3.org/1999/xlink" x="0px" y="0px"
	 viewBox="0 0 160 40" style="enable-background:new 0 0 160 40;" xml:space="preserve">
<style type="text/css">
	.st0{fill:#E6042D;}
	.st1{fill:#0074D2;}
	.st2{fill:#003090;}
</style>
<g>
	<g>
		<path class="st0" d="M14.62,22.4L14.62,22.4c-0.15,0-0.28-0.12-0.28-0.27c0-0.04,0.01-0.07,0.02-0.1c0,0,0,0,0,0l1.17-2.97
			c-1.71-0.11-3.12-0.84-3.98-2.11c-0.99-1.46-1.1-3.44-0.32-5.43l0.1-0.26H6.28c-0.23,0-0.43,0.14-0.52,0.34l-0.02,0.04l-0.48,1.22
			h0L1.17,23.19c-1.22,3.08,0.29,5.57,3.37,5.57h6.76c0.15,0,0.27,0.12,0.27,0.27c0,0.04-0.01,0.07-0.02,0.1c0,0,0,0,0,0l-3.3,8.35
			l-0.02,0.04c-0.02,0.06-0.04,0.13-0.04,0.2c0,0.32,0.26,0.58,0.58,0.58h11.5c0.24,0,0.44-0.14,0.53-0.35l0.01-0.01l3.95-9.99
			c1.22-3.08-0.29-5.57-3.37-5.57H14.62"/>
	</g>
	<g>
		<path class="st1" d="M22.72,17.62L22.72,17.62c0.15,0,0.28,0.12,0.28,0.27c0,0.04-0.01,0.07-0.02,0.1c0,0,0,0,0,0l-1.17,2.97
			c1.71,0.11,3.12,0.84,3.98,2.11c0.99,1.46,1.1,3.44,0.32,5.43L26,28.76h5.07c0.23,0,0.43-0.14,0.52-0.34l0.02-0.04l0.48-1.22h0
			l4.09-10.35c1.22-3.08-0.29-5.57-3.37-5.57h-6.76c-0.15,0-0.27-0.12-0.27-0.27c0-0.04,0.01-0.07,0.02-0.1c0,0,0,0,0,0l3.3-8.35
			l0.02-0.04c0.02-0.06,0.04-0.13,0.04-0.2c0-0.32-0.26-0.58-0.58-0.58h-11.5c-0.24,0-0.44,0.14-0.53,0.35l-0.01,0.01l-3.95,9.99
			c-1.22,3.08,0.29,5.57,3.37,5.57H22.72"/>
	</g>
	<g>
		<g>
			<g>
				<path class="st2" d="M101,10.11v11.26c0,1.57-0.26,2.68-0.79,3.33c-0.53,0.64-1.43,0.96-2.71,0.96c-1.28,0-2.19-0.32-2.71-0.96
					c-0.53-0.64-0.79-1.75-0.79-3.33V10.11h-4.83v11.16c0,1.47,0.14,2.68,0.43,3.64c0.3,0.99,0.79,1.8,1.45,2.43
					c0.68,0.64,1.54,1.1,2.58,1.38c1.03,0.28,2.32,0.41,3.86,0.41c1.55,0,2.83-0.14,3.86-0.41c1.04-0.28,1.9-0.74,2.58-1.38
					c0.67-0.63,1.15-1.44,1.45-2.43c0.29-0.95,0.43-2.17,0.43-3.64V10.11H101z"/>
			</g>
			<g>
				<rect x="80.72" y="1.86" class="st2" width="4.83" height="26.89"/>
				<path class="st2" d="M121.32,1.86v8.88c-0.71-0.36-1.45-0.62-2.23-0.8c-0.78-0.18-1.62-0.27-2.53-0.27
					c-2.82,0-4.88,0.79-6.18,2.36c-1.29,1.56-1.93,4.07-1.93,7.52c0,3.36,0.63,5.79,1.9,7.3c1.28,1.52,3.29,2.28,6.03,2.28
					c1.11,0,2.05-0.11,2.83-0.32c0.86-0.24,1.66-0.6,2.42-1.09l0.19,1.04h4.34V1.86H121.32z M121.32,24.63
					c-0.63,0.34-1.27,0.6-1.91,0.79c-0.57,0.16-1.22,0.24-1.96,0.24c-1.5,0-2.56-0.47-3.17-1.41c-0.62-0.93-0.93-2.49-0.93-4.7
					c0-2.3,0.31-3.93,0.93-4.89c0.62-0.95,1.66-1.43,3.14-1.43c0.79,0,1.46,0.07,2,0.21c0.66,0.16,1.29,0.41,1.91,0.75V24.63z"/>
			</g>
		</g>
		<g>
			<path class="st2" d="M78.18,25.45c-1.19,0-1.79-0.69-1.79-2.07V16.2c0-2.27-0.6-3.93-1.81-4.96c-1.22-1.04-3.11-1.56-5.68-1.56
				c-1.1,0-2.17,0.1-3.23,0.29c-0.69,0.12-1.43,0.29-2.19,0.5c-0.01,0-0.02,0.01-0.03,0.01c-0.06,0.02-0.11,0.07-0.14,0.12
				l-0.01,0.02l-1.36,3.44l-0.02,0.05c0,0.01-0.01,0.03-0.01,0.04c0,0.1,0.08,0.17,0.17,0.17c0.02,0,0.03,0,0.04-0.01
				c0.01,0,0.02-0.01,0.03-0.01c1.11-0.36,2.17-0.66,3.18-0.87c0.98-0.12,1.97-0.18,2.95-0.18c1.15,0,1.98,0.25,2.49,0.75
				c0.53,0.52,0.79,1.31,0.79,2.37v1.55h-3.8c-2.52,0-4.41,0.47-5.66,1.41c-1.29,0.97-1.94,2.37-1.94,4.22
				c0,1.81,0.54,3.2,1.63,4.17c1.06,0.94,2.64,1.41,4.74,1.41c2.26,0,4.09-0.64,5.5-1.92c0.63,1.28,1.89,1.92,3.79,1.92
				c0.45,0,0.9-0.05,1.33-0.15l1.4-3.54C78.41,25.45,78.29,25.45,78.18,25.45z M71.56,24.55c-1.15,0.79-2.41,1.19-3.78,1.19
				c-1.86,0-2.8-0.79-2.8-2.36c0-1.46,1.02-2.19,3.06-2.19h3.52V24.55z"/>
		</g>
		<path class="st2" d="M56.24,16c-1.13-1.2-2.93-2.11-5.42-2.75l-2.07-0.55c-1.31-0.35-2.24-0.82-2.8-1.42
			c-0.56-0.59-0.84-1.38-0.84-2.38c0-1.21,0.36-2.09,1.07-2.66c0.71-0.57,1.86-0.85,3.44-0.85c1.35,0,2.55,0.1,3.59,0.3
			c1,0.19,2,0.48,3.01,0.87c0,0,0,0,0,0c0.02,0.01,0.04,0.01,0.07,0.01c0.1,0,0.17-0.08,0.17-0.17c0-0.02-0.01-0.04-0.01-0.06
			l0-0.01L54.9,2.41l0-0.01c-0.03-0.07-0.09-0.12-0.16-0.13c-0.01,0-0.01,0-0.02,0c-0.62-0.14-1.24-0.26-1.88-0.35
			c-0.98-0.15-2.03-0.23-3.14-0.23c-6.48,0-9.71,2.61-9.71,7.84c0,2.01,0.53,3.6,1.58,4.77c1.07,1.18,2.78,2.06,5.13,2.64l2.17,0.55
			c1.48,0.35,2.5,0.84,3.07,1.47c0.57,0.63,0.85,1.48,0.85,2.55c0,1.4-0.39,2.41-1.17,3.04c-0.78,0.63-2.02,0.94-3.72,0.94
			c-1.34,0-2.62-0.16-3.86-0.47c-1.06-0.27-2.18-0.7-3.36-1.29c-0.02-0.01-0.03-0.02-0.05-0.02c-0.02-0.01-0.03-0.01-0.05-0.01
			c-0.1,0-0.17,0.08-0.17,0.17c0,0.01,0,0.03,0.01,0.04l0.02,0.04l1.71,4.32l0.02,0.04c0.03,0.05,0.07,0.09,0.12,0.11
			c0.02,0.01,0.04,0.01,0.06,0.02c0.63,0.17,1.29,0.32,1.98,0.43c1.1,0.18,2.45,0.26,4.05,0.26c3.36,0,5.8-0.65,7.3-1.94
			c1.51-1.29,2.27-3.38,2.27-6.27C57.91,18.82,57.35,17.18,56.24,16z"/>
	</g>
	<path class="st1" d="M139.8,20.2c-0.78-0.82-2.06-1.44-3.86-1.85l-1.67-0.41c-0.96-0.26-1.65-0.59-2.09-0.99
		c-0.45-0.41-0.68-1.01-0.68-1.79c0-0.87,0.3-1.52,0.9-1.94c0.6-0.42,1.54-0.63,2.82-0.63c1.5,0,3,0.28,4.51,0.82c0,0,0.01,0,0.01,0
		c0.02,0.01,0.04,0.01,0.06,0.01c0.09,0,0.17-0.08,0.17-0.17c0-0.01,0-0.02-0.01-0.03l-0.02-0.06L139,10.81l0-0.01
		c-0.02-0.05-0.07-0.1-0.12-0.12c-0.02-0.01-0.04-0.01-0.06-0.02c-1.21-0.32-2.51-0.48-3.91-0.48c-2.16,0-3.8,0.46-4.92,1.37
		c-1.12,0.91-1.68,2.22-1.68,3.94c0,1.38,0.37,2.47,1.12,3.27c0.78,0.85,1.98,1.45,3.58,1.81l1.68,0.41
		c1.1,0.27,1.89,0.62,2.37,1.04c0.47,0.41,0.7,0.98,0.7,1.7c0,1.04-0.31,1.8-0.92,2.28c-0.61,0.48-1.57,0.71-2.87,0.71
		c-1.78,0-3.51-0.37-5.21-1.1c0,0,0,0-0.01,0c-0.02-0.01-0.04-0.01-0.06-0.01c-0.09,0-0.17,0.08-0.17,0.17c0,0.02,0,0.04,0.01,0.06
		l0,0.01l0.99,2.51l0.01,0.02c0.02,0.05,0.07,0.09,0.12,0.12c0.02,0.01,0.03,0.01,0.05,0.01c1.36,0.41,2.8,0.61,4.34,0.61
		c2.38,0,4.12-0.45,5.21-1.34c1.11-0.91,1.67-2.31,1.7-4.22C140.95,22.12,140.57,21,139.8,20.2z"/>
	<g>
		<path class="st1" d="M158.84,26.66c-0.58,0-0.98-0.13-1.21-0.39c-0.29-0.33-0.44-0.92-0.44-1.76v-7.94c0-2.21-0.53-3.82-1.6-4.85
			c-1.07-1.03-2.77-1.54-5.11-1.54c-0.96,0-1.94,0.08-2.93,0.24c-0.64,0.1-1.25,0.24-1.85,0.4c-0.02,0-0.04,0.01-0.05,0.01
			c-0.05,0.02-0.1,0.06-0.12,0.11l-0.01,0.03l-1,2.52l0,0.01c-0.01,0.02-0.01,0.04-0.01,0.06c0,0.09,0.08,0.17,0.17,0.17
			c0.02,0,0.04,0,0.06-0.01c0,0,0,0,0,0c0.92-0.31,1.79-0.54,2.59-0.7c0.87-0.17,1.79-0.26,2.78-0.26c1.37,0,2.36,0.32,2.96,0.95
			c0.61,0.65,0.92,1.65,0.92,3.02v1.94h-4.46c-2.22,0-3.9,0.44-5.05,1.32c-1.16,0.88-1.74,2.17-1.74,3.87c0,1.74,0.5,3.05,1.49,3.93
			c1.01,0.88,2.48,1.32,4.41,1.32c2.29,0,4.16-0.69,5.61-2.06c0.26,0.75,0.65,1.28,1.19,1.6c0.53,0.31,1.17,0.46,1.93,0.46
			c0.35,0,0.66-0.03,0.94-0.09l0.94-2.39C159.11,26.66,158.97,26.66,158.84,26.66z M153.99,24.92c-1.31,1.2-2.87,1.8-4.67,1.8
			c-2.26,0-3.38-0.97-3.38-2.92c0-1.86,1.24-2.79,3.72-2.79h4.34V24.92z"/>
	</g>
</g>
</svg>
